<svg width="21" height="19" viewBox="0 0 21 19" fill="none" xmlns="http://www.w3.org/2000/svg">
<path fill-rule="evenodd" clip-rule="evenodd" d="M3.8147e-06 2.06961C3.8147e-06 1.24853 1.06347 0.956469 1.76702 0.763254C1.83167 0.745504 1.89325 0.728582 1.95074 0.71217C2.82937 0.461119 4.0772 0.212036 5.57273 0.212036C7.17378 0.212036 8.49387 0.745161 9.40036 1.2632C9.53903 1.34244 9.68485 1.45189 9.81665 1.55082C9.9907 1.68152 10.1402 1.79384 10.2167 1.79384C10.2931 1.79384 10.4427 1.68152 10.6167 1.55082C10.7485 1.45189 10.8943 1.34244 11.033 1.2632C11.9395 0.745161 13.2596 0.212036 14.8606 0.212036C16.3562 0.212036 17.604 0.461119 18.4826 0.71217C18.5379 0.72795 18.5971 0.74425 18.6592 0.761359C19.3597 0.95424 20.4333 1.24988 20.4333 2.06961V14.1439C20.4333 14.4658 20.2667 14.7647 19.9929 14.934C19.5572 15.2031 18.9824 14.9675 18.4729 14.7587C18.2952 14.6858 18.1254 14.6162 17.9723 14.5725C17.2256 14.3592 16.1514 14.1439 14.8606 14.1439C13.6891 14.1439 12.8121 14.5303 12.1547 14.9349C11.9858 15.0388 11.8151 15.1714 11.64 15.3074C11.207 15.6437 10.7463 16.0014 10.2167 16.0014C9.6856 16.0014 9.22724 15.645 8.79498 15.3088C8.61963 15.1724 8.44854 15.0394 8.27867 14.9349C7.62118 14.5303 6.74422 14.1439 5.57273 14.1439C4.2819 14.1439 3.20776 14.3592 2.46102 14.5725C2.30089 14.6183 2.12702 14.6917 1.94656 14.7679C1.44492 14.9798 0.892292 15.2132 0.440529 14.934C0.166721 14.7647 3.8147e-06 14.4658 3.8147e-06 14.1439V2.06961ZM18.2669 2.5874C18.4535 2.64696 18.5758 2.82266 18.5758 3.01852V12.1926C18.5758 12.5027 18.2777 12.7259 17.9763 12.6533C17.1494 12.4541 16.0887 12.2863 14.8606 12.2863C13.2231 12.2863 12.0005 12.843 11.1455 13.3749V3.42162C11.3322 3.27326 11.6064 3.07498 11.9545 2.87602C12.6734 2.46528 13.6753 2.06961 14.8606 2.06961C16.3327 2.06961 17.5263 2.35101 18.2669 2.5874ZM5.57273 12.2863C7.21028 12.2863 8.43285 12.843 9.28789 13.3749V3.42162C9.10111 3.27326 8.82693 3.07498 8.47882 2.87602C7.75994 2.46528 6.75805 2.06961 5.57273 2.06961C4.1007 2.06961 2.90702 2.35101 2.1664 2.5874C1.97981 2.64696 1.85758 2.82266 1.85758 3.01852V12.1926C1.85758 12.5027 2.15563 12.7259 2.45712 12.6533C3.28401 12.4541 4.34469 12.2863 5.57273 12.2863Z" fill="white"/>
<path d="M19.4234 17.3099C19.6331 16.8418 19.4235 16.2923 18.9554 16.0826C18.5205 15.8893 18.0702 15.7269 17.6174 15.5815C16.8661 15.3405 15.8274 15.0728 14.8606 15.0728C13.7768 15.0728 12.8518 15.6569 12.1813 16.0802C12.1469 16.1019 12.1132 16.1232 12.0801 16.144C11.299 16.6351 10.7736 16.9303 10.2166 16.9303C9.6604 16.9303 9.13814 16.6358 8.35796 16.1444C8.32591 16.1242 8.29331 16.1036 8.26006 16.0825C7.58901 15.6582 6.66338 15.0728 5.57271 15.0728C4.60073 15.0728 3.56216 15.3403 2.81123 15.5817C2.13693 15.7985 1.63669 16.0129 1.50814 16.0693C1.03818 16.2772 0.794741 16.8322 1.01068 17.3116C1.21975 17.7761 1.77777 17.9822 2.24077 17.7764C2.61145 17.6129 2.9943 17.4741 3.37984 17.3501C4.07346 17.1271 4.89246 16.9303 5.57271 16.9303C6.09199 16.9303 6.59094 17.2262 7.42387 17.7515C8.11434 18.1869 9.06746 18.7879 10.2166 18.7879C11.3666 18.7879 12.3228 18.1861 13.0152 17.7504C13.8498 17.225 14.3477 16.9303 14.8606 16.9303C15.5351 16.9303 16.3539 17.127 17.0499 17.3503C17.4376 17.4747 17.8237 17.6131 18.1963 17.7781C18.6644 17.9876 19.2138 17.778 19.4234 17.3099Z" fill="white"/>
</svg>
